<mxfile host="app.diagrams.net" modified="2020-09-23T08:18:07.776Z" agent="5.0 (Windows NT 10.0; Win64; x64) AppleWebKit/537.36 (KHTML, like Gecko) Chrome/85.0.4183.106 Safari/537.36" etag="s-L6UdfJF0_II9VAnlIC" version="13.7.4" type="github">
  <diagram name="Page-1" id="2c0d36ab-eaac-3732-788b-9136903baeff">
    <mxGraphModel dx="1378" dy="751" grid="0" gridSize="10" guides="1" tooltips="1" connect="1" arrows="1" fold="1" page="1" pageScale="1.5" pageWidth="827" pageHeight="1169" background="#ffffff" math="0" shadow="1">
      <root>
        <mxCell id="0" />
        <mxCell id="1" parent="0" />
        <mxCell id="3DmUJjg0_myh0XN7VByz-149" style="edgeStyle=orthogonalEdgeStyle;rounded=0;orthogonalLoop=1;jettySize=auto;html=1;strokeWidth=2;" edge="1" parent="1" source="2" target="10">
          <mxGeometry relative="1" as="geometry">
            <Array as="points">
              <mxPoint x="620" y="261" />
              <mxPoint x="620" y="261" />
            </Array>
          </mxGeometry>
        </mxCell>
        <mxCell id="3DmUJjg0_myh0XN7VByz-158" style="edgeStyle=orthogonalEdgeStyle;rounded=0;sketch=0;jumpStyle=none;orthogonalLoop=1;jettySize=auto;html=1;shadow=0;strokeWidth=2;" edge="1" parent="1" source="2" target="3DmUJjg0_myh0XN7VByz-123">
          <mxGeometry relative="1" as="geometry">
            <Array as="points">
              <mxPoint x="620" y="260" />
              <mxPoint x="449" y="260" />
            </Array>
          </mxGeometry>
        </mxCell>
        <mxCell id="3DmUJjg0_myh0XN7VByz-159" style="edgeStyle=orthogonalEdgeStyle;rounded=0;sketch=0;jumpStyle=none;orthogonalLoop=1;jettySize=auto;html=1;shadow=0;strokeWidth=2;" edge="1" parent="1" source="2" target="12">
          <mxGeometry relative="1" as="geometry">
            <Array as="points">
              <mxPoint x="620" y="261" />
              <mxPoint x="270" y="261" />
            </Array>
          </mxGeometry>
        </mxCell>
        <mxCell id="3DmUJjg0_myh0XN7VByz-160" style="edgeStyle=orthogonalEdgeStyle;rounded=0;sketch=0;jumpStyle=none;orthogonalLoop=1;jettySize=auto;html=1;exitX=0.5;exitY=1;exitDx=0;exitDy=0;shadow=0;strokeWidth=2;" edge="1" parent="1" source="2" target="13">
          <mxGeometry relative="1" as="geometry" />
        </mxCell>
        <mxCell id="3DmUJjg0_myh0XN7VByz-161" style="edgeStyle=orthogonalEdgeStyle;rounded=0;sketch=0;jumpStyle=none;orthogonalLoop=1;jettySize=auto;html=1;shadow=0;strokeWidth=2;" edge="1" parent="1" source="2" target="4">
          <mxGeometry relative="1" as="geometry">
            <Array as="points">
              <mxPoint x="620" y="260" />
              <mxPoint x="794" y="260" />
            </Array>
          </mxGeometry>
        </mxCell>
        <mxCell id="3DmUJjg0_myh0XN7VByz-162" style="edgeStyle=orthogonalEdgeStyle;rounded=0;sketch=0;jumpStyle=none;orthogonalLoop=1;jettySize=auto;html=1;shadow=0;strokeWidth=2;" edge="1" parent="1" source="2" target="3DmUJjg0_myh0XN7VByz-141">
          <mxGeometry relative="1" as="geometry">
            <Array as="points">
              <mxPoint x="620" y="260" />
              <mxPoint x="964" y="260" />
            </Array>
          </mxGeometry>
        </mxCell>
        <mxCell id="3DmUJjg0_myh0XN7VByz-163" style="edgeStyle=orthogonalEdgeStyle;rounded=0;sketch=0;jumpStyle=none;orthogonalLoop=1;jettySize=auto;html=1;shadow=0;strokeWidth=2;" edge="1" parent="1" source="2" target="3DmUJjg0_myh0XN7VByz-142">
          <mxGeometry relative="1" as="geometry">
            <Array as="points">
              <mxPoint x="620" y="260" />
              <mxPoint x="1130" y="260" />
            </Array>
          </mxGeometry>
        </mxCell>
        <mxCell id="2" value="Accueil" style="rounded=1;fillColor=#b1ddf0;strokeColor=#10739e;fontStyle=1;fontFamily=Tahoma;fontSize=14;" parent="1" vertex="1">
          <mxGeometry x="525" y="135" width="190" height="64" as="geometry" />
        </mxCell>
        <mxCell id="4" value="Contact" style="rounded=1;fillColor=#b1ddf0;strokeColor=#10739e;fontStyle=1;fontFamily=Tahoma;fontSize=14" parent="1" vertex="1">
          <mxGeometry x="720" y="324" width="147" height="80" as="geometry" />
        </mxCell>
        <mxCell id="10" value="Infos" style="rounded=1;fillColor=#b1ddf0;strokeColor=#10739e;fontStyle=1;fontFamily=Tahoma;fontSize=14" parent="1" vertex="1">
          <mxGeometry x="546.25" y="322" width="148" height="83" as="geometry" />
        </mxCell>
        <mxCell id="12" value="Discipline" style="rounded=1;fillColor=#b1ddf0;strokeColor=#10739e;fontStyle=1;fontFamily=Tahoma;fontSize=14" parent="1" vertex="1">
          <mxGeometry x="195" y="324" width="151" height="80" as="geometry" />
        </mxCell>
        <mxCell id="13" value="AMHE" style="rounded=1;fillColor=#b1ddf0;strokeColor=#10739e;fontStyle=1;fontFamily=Tahoma;fontSize=14" parent="1" vertex="1">
          <mxGeometry x="19" y="322" width="150" height="80" as="geometry" />
        </mxCell>
        <mxCell id="3DmUJjg0_myh0XN7VByz-123" value="Forum" style="rounded=1;fillColor=#b1ddf0;strokeColor=#10739e;fontStyle=1;fontFamily=Tahoma;fontSize=14" vertex="1" parent="1">
          <mxGeometry x="377" y="324" width="144" height="80" as="geometry" />
        </mxCell>
        <mxCell id="3DmUJjg0_myh0XN7VByz-141" value="Connexion" style="rounded=1;fillColor=#b1ddf0;strokeColor=#10739e;fontStyle=1;fontFamily=Tahoma;fontSize=14" vertex="1" parent="1">
          <mxGeometry x="894" y="324" width="141" height="80" as="geometry" />
        </mxCell>
        <mxCell id="3DmUJjg0_myh0XN7VByz-142" value="S&#39;enregistrer" style="rounded=1;fillColor=#b1ddf0;strokeColor=#10739e;fontStyle=1;fontFamily=Tahoma;fontSize=14" vertex="1" parent="1">
          <mxGeometry x="1059" y="324" width="141" height="80" as="geometry" />
        </mxCell>
        <mxCell id="3DmUJjg0_myh0XN7VByz-164" value="&lt;font style=&quot;font-size: 20px&quot; face=&quot;Comic Sans MS&quot;&gt;AccÃ¨s Visiteur&lt;/font&gt;" style="rounded=0;whiteSpace=wrap;html=1;strokeColor=#7EA6E0;" vertex="1" parent="1">
          <mxGeometry x="489" y="35" width="265" height="60" as="geometry" />
        </mxCell>
        <mxCell id="3DmUJjg0_myh0XN7VByz-165" style="edgeStyle=orthogonalEdgeStyle;rounded=0;orthogonalLoop=1;jettySize=auto;html=1;strokeWidth=2;" edge="1" parent="1" source="3DmUJjg0_myh0XN7VByz-172" target="3DmUJjg0_myh0XN7VByz-174">
          <mxGeometry relative="1" as="geometry">
            <Array as="points">
              <mxPoint x="630.5" y="698" />
              <mxPoint x="630.5" y="698" />
            </Array>
          </mxGeometry>
        </mxCell>
        <mxCell id="3DmUJjg0_myh0XN7VByz-166" style="edgeStyle=orthogonalEdgeStyle;rounded=0;sketch=0;jumpStyle=none;orthogonalLoop=1;jettySize=auto;html=1;shadow=0;strokeWidth=2;" edge="1" parent="1" source="3DmUJjg0_myh0XN7VByz-172" target="3DmUJjg0_myh0XN7VByz-177">
          <mxGeometry relative="1" as="geometry">
            <Array as="points">
              <mxPoint x="630.5" y="697" />
              <mxPoint x="459.5" y="697" />
            </Array>
          </mxGeometry>
        </mxCell>
        <mxCell id="3DmUJjg0_myh0XN7VByz-167" style="edgeStyle=orthogonalEdgeStyle;rounded=0;sketch=0;jumpStyle=none;orthogonalLoop=1;jettySize=auto;html=1;shadow=0;strokeWidth=2;" edge="1" parent="1" source="3DmUJjg0_myh0XN7VByz-172" target="3DmUJjg0_myh0XN7VByz-175">
          <mxGeometry relative="1" as="geometry">
            <Array as="points">
              <mxPoint x="630.5" y="698" />
              <mxPoint x="280.5" y="698" />
            </Array>
          </mxGeometry>
        </mxCell>
        <mxCell id="3DmUJjg0_myh0XN7VByz-168" style="edgeStyle=orthogonalEdgeStyle;rounded=0;sketch=0;jumpStyle=none;orthogonalLoop=1;jettySize=auto;html=1;exitX=0.5;exitY=1;exitDx=0;exitDy=0;shadow=0;strokeWidth=2;" edge="1" parent="1" source="3DmUJjg0_myh0XN7VByz-172" target="3DmUJjg0_myh0XN7VByz-176">
          <mxGeometry relative="1" as="geometry" />
        </mxCell>
        <mxCell id="3DmUJjg0_myh0XN7VByz-169" style="edgeStyle=orthogonalEdgeStyle;rounded=0;sketch=0;jumpStyle=none;orthogonalLoop=1;jettySize=auto;html=1;shadow=0;strokeWidth=2;" edge="1" parent="1" source="3DmUJjg0_myh0XN7VByz-172" target="3DmUJjg0_myh0XN7VByz-173">
          <mxGeometry relative="1" as="geometry">
            <Array as="points">
              <mxPoint x="630.5" y="697" />
              <mxPoint x="804.5" y="697" />
            </Array>
          </mxGeometry>
        </mxCell>
        <mxCell id="3DmUJjg0_myh0XN7VByz-170" style="edgeStyle=orthogonalEdgeStyle;rounded=0;sketch=0;jumpStyle=none;orthogonalLoop=1;jettySize=auto;html=1;shadow=0;strokeWidth=2;" edge="1" parent="1" source="3DmUJjg0_myh0XN7VByz-172" target="3DmUJjg0_myh0XN7VByz-178">
          <mxGeometry relative="1" as="geometry">
            <Array as="points">
              <mxPoint x="630.5" y="697" />
              <mxPoint x="974.5" y="697" />
            </Array>
          </mxGeometry>
        </mxCell>
        <mxCell id="3DmUJjg0_myh0XN7VByz-171" style="edgeStyle=orthogonalEdgeStyle;rounded=0;sketch=0;jumpStyle=none;orthogonalLoop=1;jettySize=auto;html=1;shadow=0;strokeWidth=2;" edge="1" parent="1" source="3DmUJjg0_myh0XN7VByz-172" target="3DmUJjg0_myh0XN7VByz-179">
          <mxGeometry relative="1" as="geometry">
            <Array as="points">
              <mxPoint x="630.5" y="697" />
              <mxPoint x="1140.5" y="697" />
            </Array>
          </mxGeometry>
        </mxCell>
        <mxCell id="3DmUJjg0_myh0XN7VByz-172" value="Accueil" style="rounded=1;fillColor=#b1ddf0;strokeColor=#10739e;fontStyle=1;fontFamily=Tahoma;fontSize=14;" vertex="1" parent="1">
          <mxGeometry x="535.5" y="572" width="190" height="64" as="geometry" />
        </mxCell>
        <mxCell id="3DmUJjg0_myh0XN7VByz-173" value="Contact" style="rounded=1;fillColor=#b1ddf0;strokeColor=#10739e;fontStyle=1;fontFamily=Tahoma;fontSize=14" vertex="1" parent="1">
          <mxGeometry x="730.5" y="761" width="147" height="80" as="geometry" />
        </mxCell>
        <mxCell id="3DmUJjg0_myh0XN7VByz-174" value="Infos" style="rounded=1;fillColor=#b1ddf0;strokeColor=#10739e;fontStyle=1;fontFamily=Tahoma;fontSize=14" vertex="1" parent="1">
          <mxGeometry x="556.5" y="759" width="148" height="80" as="geometry" />
        </mxCell>
        <mxCell id="3DmUJjg0_myh0XN7VByz-175" value="Discipline" style="rounded=1;fillColor=#b1ddf0;strokeColor=#10739e;fontStyle=1;fontFamily=Tahoma;fontSize=14" vertex="1" parent="1">
          <mxGeometry x="205.5" y="761" width="151" height="80" as="geometry" />
        </mxCell>
        <mxCell id="3DmUJjg0_myh0XN7VByz-176" value="AMHE" style="rounded=1;fillColor=#b1ddf0;strokeColor=#10739e;fontStyle=1;fontFamily=Tahoma;fontSize=14" vertex="1" parent="1">
          <mxGeometry x="29.5" y="759" width="150" height="80" as="geometry" />
        </mxCell>
        <mxCell id="3DmUJjg0_myh0XN7VByz-177" value="Forum" style="rounded=1;fillColor=#b1ddf0;strokeColor=#10739e;fontStyle=1;fontFamily=Tahoma;fontSize=14" vertex="1" parent="1">
          <mxGeometry x="387.5" y="761" width="144" height="80" as="geometry" />
        </mxCell>
        <mxCell id="3DmUJjg0_myh0XN7VByz-178" value="Profil" style="rounded=1;fillColor=#b1ddf0;strokeColor=#10739e;fontStyle=1;fontFamily=Tahoma;fontSize=14" vertex="1" parent="1">
          <mxGeometry x="904.5" y="761" width="141" height="80" as="geometry" />
        </mxCell>
        <mxCell id="3DmUJjg0_myh0XN7VByz-179" value="DÃ©connexion" style="rounded=1;fillColor=#b1ddf0;strokeColor=#10739e;fontStyle=1;fontFamily=Tahoma;fontSize=14" vertex="1" parent="1">
          <mxGeometry x="1069.5" y="761" width="141" height="80" as="geometry" />
        </mxCell>
        <mxCell id="3DmUJjg0_myh0XN7VByz-180" value="&lt;font style=&quot;font-size: 20px&quot; face=&quot;Comic Sans MS&quot;&gt;AccÃ¨s Membre&lt;/font&gt;" style="rounded=0;whiteSpace=wrap;html=1;strokeColor=#7EA6E0;" vertex="1" parent="1">
          <mxGeometry x="499.5" y="472" width="265" height="60" as="geometry" />
        </mxCell>
        <mxCell id="3DmUJjg0_myh0XN7VByz-183" style="edgeStyle=orthogonalEdgeStyle;rounded=0;sketch=0;jumpStyle=none;orthogonalLoop=1;jettySize=auto;html=1;shadow=0;strokeWidth=2;" edge="1" parent="1" source="3DmUJjg0_myh0XN7VByz-189" target="3DmUJjg0_myh0XN7VByz-194">
          <mxGeometry relative="1" as="geometry">
            <Array as="points">
              <mxPoint x="631" y="1153" />
              <mxPoint x="375" y="1153" />
            </Array>
          </mxGeometry>
        </mxCell>
        <mxCell id="3DmUJjg0_myh0XN7VByz-184" style="edgeStyle=orthogonalEdgeStyle;rounded=0;sketch=0;jumpStyle=none;orthogonalLoop=1;jettySize=auto;html=1;shadow=0;strokeWidth=2;" edge="1" parent="1" source="3DmUJjg0_myh0XN7VByz-189" target="3DmUJjg0_myh0XN7VByz-192">
          <mxGeometry relative="1" as="geometry">
            <Array as="points">
              <mxPoint x="631" y="1154" />
              <mxPoint x="236" y="1154" />
            </Array>
          </mxGeometry>
        </mxCell>
        <mxCell id="3DmUJjg0_myh0XN7VByz-185" style="edgeStyle=orthogonalEdgeStyle;rounded=0;sketch=0;jumpStyle=none;orthogonalLoop=1;jettySize=auto;html=1;exitX=0.5;exitY=1;exitDx=0;exitDy=0;shadow=0;strokeWidth=2;" edge="1" parent="1" source="3DmUJjg0_myh0XN7VByz-189" target="3DmUJjg0_myh0XN7VByz-193">
          <mxGeometry relative="1" as="geometry" />
        </mxCell>
        <mxCell id="3DmUJjg0_myh0XN7VByz-186" style="edgeStyle=orthogonalEdgeStyle;rounded=0;sketch=0;jumpStyle=none;orthogonalLoop=1;jettySize=auto;html=1;shadow=0;strokeWidth=2;" edge="1" parent="1" source="3DmUJjg0_myh0XN7VByz-189" target="3DmUJjg0_myh0XN7VByz-190">
          <mxGeometry relative="1" as="geometry">
            <Array as="points">
              <mxPoint x="631" y="1153" />
              <mxPoint x="824" y="1153" />
            </Array>
          </mxGeometry>
        </mxCell>
        <mxCell id="3DmUJjg0_myh0XN7VByz-187" style="edgeStyle=orthogonalEdgeStyle;rounded=0;sketch=0;jumpStyle=none;orthogonalLoop=1;jettySize=auto;html=1;shadow=0;strokeWidth=2;" edge="1" parent="1" source="3DmUJjg0_myh0XN7VByz-189" target="3DmUJjg0_myh0XN7VByz-195">
          <mxGeometry relative="1" as="geometry">
            <Array as="points">
              <mxPoint x="631" y="1153" />
              <mxPoint x="975" y="1153" />
            </Array>
          </mxGeometry>
        </mxCell>
        <mxCell id="3DmUJjg0_myh0XN7VByz-188" style="edgeStyle=orthogonalEdgeStyle;rounded=0;sketch=0;jumpStyle=none;orthogonalLoop=1;jettySize=auto;html=1;shadow=0;strokeWidth=2;" edge="1" parent="1" source="3DmUJjg0_myh0XN7VByz-189" target="3DmUJjg0_myh0XN7VByz-196">
          <mxGeometry relative="1" as="geometry">
            <Array as="points">
              <mxPoint x="631" y="1153" />
              <mxPoint x="1141" y="1153" />
            </Array>
          </mxGeometry>
        </mxCell>
        <mxCell id="3DmUJjg0_myh0XN7VByz-200" style="edgeStyle=orthogonalEdgeStyle;rounded=0;sketch=0;jumpStyle=none;orthogonalLoop=1;jettySize=auto;html=1;shadow=0;strokeWidth=2;" edge="1" parent="1" source="3DmUJjg0_myh0XN7VByz-189" target="3DmUJjg0_myh0XN7VByz-199">
          <mxGeometry relative="1" as="geometry" />
        </mxCell>
        <mxCell id="3DmUJjg0_myh0XN7VByz-201" style="edgeStyle=orthogonalEdgeStyle;rounded=0;sketch=0;jumpStyle=none;orthogonalLoop=1;jettySize=auto;html=1;entryX=0.5;entryY=0;entryDx=0;entryDy=0;shadow=0;strokeWidth=2;" edge="1" parent="1" source="3DmUJjg0_myh0XN7VByz-189" target="3DmUJjg0_myh0XN7VByz-191">
          <mxGeometry relative="1" as="geometry" />
        </mxCell>
        <mxCell id="3DmUJjg0_myh0XN7VByz-189" value="Accueil" style="rounded=1;fillColor=#b1ddf0;strokeColor=#10739e;fontStyle=1;fontFamily=Tahoma;fontSize=14;" vertex="1" parent="1">
          <mxGeometry x="536" y="1028" width="190" height="64" as="geometry" />
        </mxCell>
        <mxCell id="3DmUJjg0_myh0XN7VByz-190" value="Contact" style="rounded=1;fillColor=#b1ddf0;strokeColor=#10739e;fontStyle=1;fontFamily=Tahoma;fontSize=14" vertex="1" parent="1">
          <mxGeometry x="773" y="1217" width="121" height="80" as="geometry" />
        </mxCell>
        <mxCell id="3DmUJjg0_myh0XN7VByz-191" value="Infos" style="rounded=1;fillColor=#b1ddf0;strokeColor=#10739e;fontStyle=1;fontFamily=Tahoma;fontSize=14" vertex="1" parent="1">
          <mxGeometry x="620.25" y="1215" width="120" height="80" as="geometry" />
        </mxCell>
        <mxCell id="3DmUJjg0_myh0XN7VByz-192" value="Discipline" style="rounded=1;fillColor=#b1ddf0;strokeColor=#10739e;fontStyle=1;fontFamily=Tahoma;fontSize=14" vertex="1" parent="1">
          <mxGeometry x="177" y="1217" width="118" height="80" as="geometry" />
        </mxCell>
        <mxCell id="3DmUJjg0_myh0XN7VByz-193" value="AMHE" style="rounded=1;fillColor=#b1ddf0;strokeColor=#10739e;fontStyle=1;fontFamily=Tahoma;fontSize=14" vertex="1" parent="1">
          <mxGeometry x="33" y="1215" width="116" height="80" as="geometry" />
        </mxCell>
        <mxCell id="3DmUJjg0_myh0XN7VByz-194" value="Forum" style="rounded=1;fillColor=#b1ddf0;strokeColor=#10739e;fontStyle=1;fontFamily=Tahoma;fontSize=14" vertex="1" parent="1">
          <mxGeometry x="316" y="1217" width="118" height="80" as="geometry" />
        </mxCell>
        <mxCell id="3DmUJjg0_myh0XN7VByz-195" value="Profil" style="rounded=1;fillColor=#b1ddf0;strokeColor=#10739e;fontStyle=1;fontFamily=Tahoma;fontSize=14" vertex="1" parent="1">
          <mxGeometry x="929" y="1215" width="113" height="80" as="geometry" />
        </mxCell>
        <mxCell id="3DmUJjg0_myh0XN7VByz-196" value="DÃ©connexion" style="rounded=1;fillColor=#b1ddf0;strokeColor=#10739e;fontStyle=1;fontFamily=Tahoma;fontSize=14" vertex="1" parent="1">
          <mxGeometry x="1082" y="1215" width="118" height="80" as="geometry" />
        </mxCell>
        <mxCell id="3DmUJjg0_myh0XN7VByz-197" value="&lt;font style=&quot;font-size: 20px&quot; face=&quot;Comic Sans MS&quot;&gt;AccÃ¨s Administrateur&lt;/font&gt;" style="rounded=0;whiteSpace=wrap;html=1;strokeColor=#7EA6E0;" vertex="1" parent="1">
          <mxGeometry x="500" y="928" width="265" height="60" as="geometry" />
        </mxCell>
        <mxCell id="3DmUJjg0_myh0XN7VByz-199" value="Administration" style="rounded=1;fillColor=#b1ddf0;strokeColor=#10739e;fontStyle=1;fontFamily=Tahoma;fontSize=14" vertex="1" parent="1">
          <mxGeometry x="472" y="1215" width="118" height="80" as="geometry" />
        </mxCell>
      </root>
    </mxGraphModel>
  </diagram>
</mxfile>
